<?xml version="1.0" encoding="UTF-8" standalone="no"?>
<!-- Created with Inkscape (http://www.inkscape.org/) -->

<svg
   width="128mm"
   height="128mm"
   viewBox="0 0 128 128"
   version="1.1"
   id="svg1"
   xml:space="preserve"
   inkscape:version="1.4.2 (f4327f4, 2025-05-13)"
   sodipodi:docname="drawing.svg"
   xmlns:inkscape="http://www.inkscape.org/namespaces/inkscape"
   xmlns:sodipodi="http://sodipodi.sourceforge.net/DTD/sodipodi-0.dtd"
   xmlns="http://www.w3.org/2000/svg"
   xmlns:svg="http://www.w3.org/2000/svg"><sodipodi:namedview
     id="namedview1"
     pagecolor="#ffffff"
     bordercolor="#000000"
     borderopacity="0.25"
     inkscape:showpageshadow="2"
     inkscape:pageopacity="0.0"
     inkscape:pagecheckerboard="0"
     inkscape:deskcolor="#d1d1d1"
     inkscape:document-units="mm"
     showgrid="true"
     showguides="false"
     inkscape:zoom="0.5"
     inkscape:cx="442"
     inkscape:cy="-25"
     inkscape:window-width="1920"
     inkscape:window-height="1009"
     inkscape:window-x="-8"
     inkscape:window-y="-8"
     inkscape:window-maximized="1"
     inkscape:current-layer="svg1"><inkscape:grid
       id="grid3"
       units="mm"
       originx="0"
       originy="0"
       spacingx="0.99999997"
       spacingy="0.99999997"
       empcolor="#0099e5"
       empopacity="0.30196078"
       color="#0099e5"
       opacity="0.14901961"
       empspacing="5"
       enabled="true"
       visible="true" /></sodipodi:namedview><defs
     id="defs1" /><g
     inkscape:groupmode="layer"
     id="layer1"
     inkscape:label="Layer 1"
     style="display:inline"><path
       id="path3"
       style="stroke-width:0.262631"
       d="m 112.28354,72.778478 c -0.036,33.353372 -21.635605,53.293192 -48.303483,53.293192 -26.667876,0 -48.302497,-19.94003 -48.26359,-53.293583 C 15.755367,39.424538 37.312183,1.9283333 63.980057,1.9283333 90.647933,1.92833 112.31958,39.42512 112.28354,72.778478 Z"
       sodipodi:nodetypes="sssss"
       inkscape:label="Outline" /><path
       id="path3-1"
       style="fill:#ffffff;stroke-width:0.245839"
       d="m 109.19638,72.2172 c -0.0337,31.22081 -20.252269,49.88571 -45.215048,49.88571 -24.962781,0 -45.214123,-18.6651 -45.177704,-49.886076 C 18.840041,40.99585 39.018553,5.8970867 63.981332,5.8970867 88.944111,5.8970836 109.23012,40.996395 109.19638,72.2172 Z"
       sodipodi:nodetypes="sssss"
       inkscape:label="Inner" /></g><g
     inkscape:groupmode="layer"
     id="layer2"
     inkscape:label="Layer 2"
     style="display:inline"><g
       id="g5"><path
         style="fill:#000000;stroke-width:0.264583"
         d="M 33.3375,23.01875 67.468749,36.512499 26.458333,35.189583 Z"
         id="path5"
         sodipodi:nodetypes="cccc" /><path
         style="fill:#ff0000;stroke-width:0.207826"
         d="M 33.5816,24.383489 60.391146,34.982611 28.178125,33.943482 Z"
         id="path5-7"
         sodipodi:nodetypes="cccc" /></g><g
       id="use5"
       transform="matrix(-1.1645161,0,0,1.1645161,141.05091,10.420797)"><path
         id="path18"
         style="fill:#000000;stroke-width:0.264583"
         d="m 33.337459,23.018893 34.131268,13.493819 -38.125098,-1.2301 c -2.8e-5,-0.01086 5.7e-5,-0.02154 0,-0.03239 3.11e-4,-0.107766 5.4e-4,-0.215703 8.88e-4,-0.3235 0.0758,-0.04796 0.157089,-0.128488 0.239186,-0.247174 0.02791,-0.0403 0.05845,-0.07926 0.08387,-0.121146 0.08773,-0.144476 0.13042,-0.253957 0.195254,-0.418021 0.129917,-0.328646 0.233771,-0.664501 0.334594,-1.002895 0.141455,-0.533099 0.2414,-1.075405 0.345689,-1.616613 0.0089,-0.02606 0.01763,-0.05208 0.02663,-0.0781 0.146275,-0.429552 0.291475,-0.860955 0.380301,-1.30687 0.0054,-0.02905 0.01098,-0.05826 0.01642,-0.08742 0.346035,-0.902227 0.692211,-1.804156 1.010438,-2.716692 0.129531,-0.3723 0.257593,-0.7453 0.382521,-1.11916 0.134268,-0.40178 -0.03268,-0.654864 -0.248505,-0.674957 0.04851,-0.134216 0.09817,-0.267865 0.149103,-0.401158 0.08363,-0.225429 0.171578,-0.449025 0.260486,-0.672295 z m -2.784143,4.926167 c -0.144825,0.562655 -0.282322,1.127081 -0.406039,1.694715 -0.0367,-0.203775 -0.17242,-0.316983 -0.322169,-0.317732 -0.01742,-8.7e-5 -0.03514,0.0014 -0.05281,0.0044 z m -1.275363,2.25607 c -0.01347,0.0541 -0.03369,0.135797 -0.07278,0.292437 -0.182229,0.746545 -0.369485,1.493493 -0.497454,2.251632 l -4.44e-4,4.44e-4 v 4.44e-4 c -0.04413,0.08028 -0.08556,0.161749 -0.125584,0.244067 -0.01671,-0.09301 -0.0662,-0.158727 -0.130908,-0.19126 0.0034,-0.01315 0.0068,-0.02635 0.01021,-0.03949 0.07352,-0.28663 -0.04505,-0.453133 -0.19481,-0.467279 -0.0024,-0.08687 -0.02458,-0.152411 -0.05902,-0.196585 z m -0.699364,4.454007 c -5.99e-4,0.19967 -0.0012,0.399431 -0.0013,0.599075 7e-6,0.0013 -7e-6,0.0027 0,0.004 l -0.20191,-0.0067 c 0.0079,-0.02618 0.01557,-0.05238 0.02352,-0.07854 0.05214,-0.17175 0.104337,-0.343352 0.157534,-0.51476 0.0073,-6.61e-4 0.01476,-0.0017 0.02219,-0.0031 z" /><path
         id="path19"
         style="fill:#ff0000;stroke-width:0.207826"
         d="m 33.581526,24.383451 26.809691,10.59918 -30.474251,-0.983369 c 0.105438,-0.283501 0.193998,-0.571601 0.280455,-0.86178 0.141445,-0.53306 0.240965,-1.075444 0.345245,-1.616613 0.0089,-0.0261 0.01806,-0.05204 0.02707,-0.0781 0.146275,-0.429552 0.291475,-0.860955 0.380301,-1.30687 0.0054,-0.02907 0.01098,-0.05823 0.01642,-0.08742 0.346024,-0.902196 0.692222,-1.804188 1.010438,-2.716692 0.03276,-0.09415 0.06509,-0.188436 0.09763,-0.282674 l 4.44e-4,-8.88e-4 z" /></g><g
       id="use32"
       transform="matrix(1.4774194,0,0,1.4774194,-30.88797,24.199986)"><path
         id="path63"
         style="fill:#000000;stroke-width:0.264583"
         d="m 33.337357,23.01875 -0.849604,1.503332 c 0.03842,-0.01227 0.07786,-0.01722 0.117175,-0.01504 0.213257,0.01185 0.420121,0.235377 0.407488,0.658277 -0.0012,0.04171 -0.0026,0.08351 -0.0038,0.125219 0.02691,-0.10045 0.05473,-0.200762 0.0829,-0.300806 0.126411,-0.443677 0.297536,-0.872321 0.474644,-1.297666 0.0224,-0.05326 0.04475,-0.106578 0.06716,-0.159847 0.06789,-0.161384 0.163539,-0.255626 0.259183,-0.29416 z m 0.877585,0.346976 c 0.0436,0.09582 0.0458,0.233766 -0.02448,0.400843 L 34.124,23.924317 c -0.167913,0.402978 -0.33075,0.808808 -0.45086,1.229109 -0.123723,0.438632 -0.239628,0.880868 -0.302555,1.332993 -0.05346,0.390692 -0.100025,0.783159 -0.103883,1.178042 -0.0063,0.379558 -0.0037,0.759063 0.008,1.138517 0.0094,0.351035 0.02034,0.701983 0.02204,1.053173 -2.03e-4,0.305871 -2.7e-4,0.61159 -0.001,0.917459 -10e-4,0.309145 -0.0025,0.618471 -0.0056,0.927604 -0.0032,0.311989 -0.0084,0.624014 -0.01189,0.935998 0.0022,0.21849 0.0049,0.436807 0.01434,0.655128 0.01082,0.232984 0.02626,0.465624 0.04442,0.698151 0.01787,0.200617 0.04175,0.400677 0.0717,0.599864 0.02794,0.186045 0.0541,0.372467 0.08604,0.557891 0.01457,0.08929 0.03006,0.179115 0.03953,0.269327 l 33.934468,1.094795 z m -1.89648,11.024208 c -0.02676,0.257008 -0.0519,0.514159 -0.0745,0.771603 -0.0067,0.07126 -0.01346,0.142436 -0.01994,0.213713 l 0.69885,0.02239 c -0.0074,-0.05085 -0.01655,-0.101356 -0.02483,-0.151803 -0.03234,-0.188032 -0.05874,-0.376935 -0.08709,-0.565586 -0.0042,-0.02771 -0.0083,-0.0555 -0.01224,-0.08325 -0.136735,0.138086 -0.377788,0.0843 -0.480241,-0.207067 z" /><path
         id="path64"
         style="fill:#ff0000;stroke-width:0.207826"
         d="m 33.890701,24.505643 c -0.08057,0.213038 -0.154901,0.428518 -0.217561,0.647783 -0.123723,0.438632 -0.239628,0.880868 -0.302555,1.332993 -0.05346,0.390692 -0.100025,0.783159 -0.103883,1.178042 -0.0063,0.379558 -0.0037,0.759063 0.008,1.138517 0.0094,0.351035 0.02034,0.701983 0.02204,1.053173 -2.03e-4,0.305871 -2.7e-4,0.61159 -0.001,0.917459 -10e-4,0.309145 -0.0025,0.618471 -0.0056,0.927604 -0.0032,0.311989 -0.0084,0.624014 -0.01189,0.935998 0.0022,0.21849 0.0049,0.436807 0.01434,0.655128 0.01082,0.232984 0.02626,0.465624 0.04442,0.698151 0.0036,0.04 0.0075,0.08002 0.01154,0.119973 l 27.042502,0.871989 z" /></g><g
       id="use33"
       transform="matrix(-1.4129032,0,0,1.4129032,157.50389,47.645484)"><path
         id="path34"
         style="fill:#000000;stroke-width:0.264583"
         d="m 33.224637,23.218814 c 6.89e-4,0.0059 0.0014,0.01191 0.0022,0.01792 0.0041,0.03044 0.0084,0.06068 0.0128,0.09107 -0.02267,-0.0077 -0.04605,-0.01197 -0.06949,-0.0128 z m 1.27609,0.260045 L 67.468746,36.5126 37.924114,35.559099 c -0.02337,-0.02648 -0.04565,-0.05386 -0.06766,-0.08156 -0.0037,-0.0056 -0.0074,-0.01118 -0.01097,-0.01682 0.07846,-0.101571 0.09521,-0.276979 -0.01536,-0.492661 -0.185561,-0.361954 -0.372659,-0.72312 -0.551546,-1.088461 -0.319095,-0.637964 -0.621758,-1.284152 -0.876694,-1.950892 -0.252749,-0.646369 -0.495508,-1.296996 -0.702599,-1.959669 -0.01232,-0.03953 -0.02443,-0.07891 -0.03657,-0.118502 -0.0219,-0.113759 -0.04431,-0.227627 -0.06693,-0.341241 -0.106703,-0.501144 -0.219981,-1.000714 -0.332098,-1.500658 -0.06844,-0.319557 -0.14178,-0.638124 -0.217253,-0.956061 -0.05182,-0.317547 -0.103325,-0.635087 -0.149225,-0.953501 -0.03554,-0.263272 -0.06417,-0.527167 -0.09729,-0.790744 -0.027,-0.223115 -0.05258,-0.446583 -0.08266,-0.669316 -0.02709,-0.210542 -0.05566,-0.420782 -0.09912,-0.628718 -0.03602,-0.177871 -0.07485,-0.355015 -0.117404,-0.53143 z m 1.274992,11.53162 c 0.05204,0.09113 0.106987,0.180739 0.16678,0.266995 0.07222,0.104181 0.113392,0.154128 0.173364,0.223471 l -0.10058,-0.0033 c -0.0087,-0.01387 -0.01763,-0.02782 -0.02633,-0.04169 -0.07685,-0.145579 -0.146076,-0.295138 -0.21323,-0.445479 z m 1.051887,0.41878 c 0.01732,0.03232 0.03504,0.06425 0.05303,0.09619 l -0.01536,-3.66e-4 c -0.01254,-0.03197 -0.02516,-0.06385 -0.03767,-0.09582 z" /><path
         id="path35"
         style="fill:#ff0000;stroke-width:0.207826"
         d="m 34.743582,24.842728 25.647604,10.139954 -22.93157,-0.739905 c -0.06096,-0.120779 -0.121543,-0.241666 -0.181045,-0.363186 -0.319095,-0.637964 -0.621758,-1.284152 -0.876694,-1.950892 -0.252749,-0.646369 -0.495508,-1.296996 -0.702599,-1.959669 -0.01232,-0.03953 -0.02443,-0.07891 -0.03657,-0.118502 -0.0219,-0.11376 -0.04431,-0.227626 -0.06693,-0.341241 -0.106703,-0.501144 -0.219981,-1.000714 -0.332098,-1.500658 -0.06844,-0.319558 -0.14178,-0.638124 -0.217253,-0.956061 -0.05182,-0.317546 -0.103325,-0.635088 -0.149225,-0.953501 -0.03554,-0.263272 -0.06417,-0.527167 -0.09729,-0.790744 -0.01877,-0.155127 -0.03693,-0.310494 -0.05632,-0.465595 z" /></g></g></svg>
